<?xml version="1.0" encoding="utf-8"?>
<!-- Generator: Adobe Illustrator 14.0.0, SVG Export Plug-In . SVG Version: 6.00 Build 43363)  -->
<!DOCTYPE svg PUBLIC "-//W3C//DTD SVG 1.1//EN" "http://www.w3.org/Graphics/SVG/1.1/DTD/svg11.dtd">
<svg version="1.1" id="Vrstva_1" xmlns="http://www.w3.org/2000/svg" xmlns:xlink="http://www.w3.org/1999/xlink" x="0px" y="0px"
	 width="634.033px" height="174.367px" viewBox="0 0 634.033 174.367" enable-background="new 0 0 634.033 174.367"
	 xml:space="preserve">
<g>
	<path fill="#EA670C" d="M632.02,108.875c-1.176,4.173-2.495,7.442-3.964,9.808c-1.469,2.368-3.46,4.432-5.975,6.198
		c-2.85,2.004-6.644,3.589-11.382,4.751c-4.739,1.16-9.75,1.743-15.03,1.743c-6.205,0-12.39-0.879-18.552-2.639
		c-6.162-1.762-11.717-4.196-16.667-7.309l-6.288-4.382c-6.961-4.736-11.991-8.05-15.094-9.944
		c-3.102-1.898-6.119-3.437-9.057-4.619c-6.876-2.762-14.045-4.146-21.507-4.146c-5.918,0-11.882,0.807-17.882,2.404l2.318,3.152
		c1.914-0.618,3.669-0.941,5.25-0.941c4.277,0,8.471,1.348,12.581,4.028c4.105,2.688,9.098,7.341,14.966,13.973l3.771,4.266
		l0.756,0.838c7.63,8.971,14.798,15.175,21.507,18.623c7.462,3.762,16.687,5.643,27.67,5.643c18.867,0,33.289-4.935,43.268-14.812
		c3.773-3.739,6.521-7.622,8.238-11.641c1.721-4.023,2.745-8.941,3.084-14.75L632.02,108.875z"/>
	<path d="M100.743,148.519c4.167,2.783,8.846,4.96,14.037,6.537c5.19,1.574,10.398,2.363,15.625,2.363
		c4.449,0,8.669-0.522,12.66-1.563c3.989-1.039,7.186-2.457,9.586-4.25c2.119-1.58,3.796-3.426,5.032-5.542
		c1.235-2.118,2.348-5.042,3.336-8.773l1.695,0.213c-0.283,5.199-1.148,9.599-2.595,13.195c-1.448,3.598-3.76,7.068-6.938,10.418
		c-8.405,8.833-20.552,13.249-36.442,13.249c-9.252,0-17.02-1.684-23.305-5.048c-5.65-3.084-11.689-8.636-18.115-16.657
		l-0.636-0.753c-6.215,0-12.659-0.972-19.333-2.915c-6.674-1.943-12.942-4.68-18.804-8.217
		c-11.583-6.926-20.569-16.006-26.959-27.244C3.195,102.301,0,90.072,0,76.855c0-11.802,2.542-22.773,7.627-32.914
		c5.084-10.142,12.5-18.994,22.246-26.557c7.133-5.582,14.938-9.875,23.412-12.879C61.76,1.503,70.27,0,78.815,0
		c10.027,0,19.774,2.015,29.238,6.043c7.203,3.182,13.93,7.439,20.18,12.775c6.25,5.337,11.529,11.36,15.838,18.074
		c7.627,11.874,11.441,24.806,11.441,38.801c0,8.972-1.608,17.65-4.82,26.023c-3.215,8.377-7.857,16.062-13.931,23.057
		c-5.015,5.797-10.312,10.532-15.89,14.206C115.291,142.654,108.583,145.835,100.743,148.519z M41.632,130.087
		c5.154-1.483,10.275-2.224,15.36-2.224c6.285,0,12.324,1.235,18.115,3.708c2.472,1.059,5.014,2.437,7.627,4.13
		c2.612,1.695,6.85,4.661,12.712,8.899l0.954,0.742c4.59-2.474,8.563-5.372,11.918-8.693c3.354-3.322,6.621-7.667,9.798-13.04
		c7.84-12.935,11.759-28.059,11.759-45.373c0-11.31-1.536-22.086-4.608-32.335c-3.072-10.248-7.398-18.871-12.977-25.866
		c-4.52-5.725-9.552-9.93-15.095-12.617C91.65,4.734,85.171,3.39,77.756,3.39c-7.486,0-14.001,1.326-19.545,3.975
		c-5.544,2.652-10.576,6.875-15.095,12.67c-5.509,6.998-9.799,15.604-12.871,25.817c-3.072,10.213-4.608,20.975-4.608,32.284
		c0,10.461,1.271,19.808,3.813,28.041C31.993,114.416,36.052,122.383,41.632,130.087z M72.247,148.943l-0.742-0.847
		c-4.944-5.932-9.146-10.1-12.606-12.5c-3.46-2.401-6.992-3.603-10.593-3.603c-1.342,0-2.825,0.282-4.449,0.849
		c4.449,5.155,8.81,8.934,13.083,11.335C61.211,146.576,66.315,148.166,72.247,148.943z"/>
	<path d="M240.76,150.214c-0.918-4.298-1.377-8.708-1.377-13.222c-8.829,8.814-19.28,13.222-31.356,13.222
		c-8.829,0-15.926-2.151-21.293-6.453c-5.227-4.231-7.839-10.229-7.839-17.99V88.952l-0.105-8.043c0-4.795-0.283-8.287-0.848-10.474
		c-0.565-2.188-1.625-4.056-3.178-5.609c-2.049-1.903-5.721-3.315-11.018-4.231v-2.331h31.145v53.708
		c0,7.558,0.263,13.155,0.793,16.791c0.528,3.638,1.497,6.621,2.906,8.952c1.55,2.4,3.768,4.29,6.658,5.667
		c2.888,1.376,6.128,2.065,9.722,2.065c3.946,0,7.644-0.773,11.097-2.329c3.453-1.551,6.164-3.665,8.137-6.348
		c2.042-2.75,3.4-5.924,4.069-9.522c0.668-3.597,1.004-9.52,1.004-17.775V88.738l-0.106-7.829c0-4.798-0.265-8.288-0.794-10.474
		c-0.53-2.188-1.607-4.056-3.231-5.609c-1.978-1.903-5.65-3.315-11.018-4.231v-2.331h31.145v57.453
		c0,7.264,0.193,12.36,0.583,15.288c0.388,2.926,1.147,5.306,2.277,7.14c1.272,1.977,2.755,3.405,4.449,4.286
		c1.695,0.881,4.132,1.429,7.31,1.64v2.225L240.76,150.214z"/>
	<path d="M279.535,60.488l30.51-3.813v61.012l0.105,8.026c0,4.784,0.282,8.284,0.848,10.5c0.564,2.22,1.659,4.066,3.283,5.542
		c1.978,1.901,5.615,3.343,10.912,4.33v2.225H278.37v-2.225c4.237-0.563,7.274-1.351,9.11-2.371c1.836-1.02,3.319-2.759,4.449-5.219
		c0.776-1.616,1.324-4.057,1.642-7.324c0.318-3.267,0.477-7.992,0.477-14.177V90.959c0-7.236-0.177-12.313-0.529-15.229
		c-0.354-2.917-1.131-5.286-2.331-7.114c-1.202-1.967-2.649-3.39-4.343-4.27c-1.695-0.876-4.132-1.422-7.31-1.634V60.488z
		 M301.622,18.644c-2.771,0-5.06-0.882-6.871-2.648c-1.811-1.765-2.716-3.989-2.716-6.674c0-2.612,0.922-4.82,2.769-6.621
		C296.649,0.9,298.923,0,301.622,0c2.699,0,4.971,0.9,6.818,2.701c1.845,1.801,2.769,4.009,2.769,6.621
		c0,2.685-0.904,4.909-2.715,6.674C306.683,17.762,304.392,18.644,301.622,18.644z"/>
	<path d="M352.839,58.264h26.907v4.025h-26.907v61.654c0,7.415,1.265,12.711,3.803,15.89c1.337,1.765,3.098,3.143,5.277,4.131
		c2.181,0.989,4.541,1.483,7.075,1.483c3.169,0,5.81-0.652,7.919-1.96c2.112-1.305,4.437-3.69,6.971-7.15l1.583,1.377
		c-2.331,4.237-5.598,7.378-9.8,9.428c-4.202,2.048-9.444,3.072-15.73,3.072c-8.333,0-14.407-1.624-18.221-4.872
		c-2.049-1.695-3.391-3.725-4.025-6.092c-0.636-2.364-0.954-6.621-0.954-12.765V62.29h-11.335v-1.695
		c4.592-1.483,8.831-4.344,12.723-8.581c2.344-2.612,4.228-5.208,5.649-7.786c1.421-2.578,2.771-5.915,4.055-10.011l1.063-3.496
		h3.947V58.264z"/>
	<path d="M475.805,138.032l1.801,1.059c-2.542,7.415-8.369,11.123-17.479,11.123c-5.022,0-9.194-1.235-12.519-3.708
		c-2.192-1.624-4.455-4.449-6.791-8.474c-4.741,4.237-8.311,7.028-10.716,8.369c-4.597,2.542-9.937,3.813-16.017,3.813
		c-7.782,0-13.954-1.871-18.516-5.614c-4.562-3.745-6.841-8.793-6.841-15.149c0-5.862,1.868-10.768,5.614-14.725
		c2.118-2.188,4.555-3.935,7.309-5.243c2.755-1.305,6.742-2.632,11.972-3.973c6.144-1.553,10.681-2.861,13.61-3.919
		c2.933-1.059,5.386-2.33,7.364-3.813c2.259-1.625,3.813-3.533,4.661-5.722c0.847-2.188,1.271-5.225,1.271-9.11
		c0-8.262-1.556-14.301-4.661-18.114c-1.415-1.765-3.234-3.178-5.459-4.237c-2.225-1.06-4.537-1.589-6.936-1.589
		c-2.898,0-5.476,0.742-7.733,2.224c-2.263,1.483-3.958,3.533-5.084,6.144l-2.649,6.145c-1.415,3.32-3.957,4.979-7.627,4.979
		c-2.402,0-4.415-0.794-6.038-2.382c-1.627-1.59-2.437-3.584-2.437-5.986c0-3.601,2.544-6.637,7.64-9.109
		c2.759-1.271,6.17-2.313,10.237-3.125c4.068-0.812,8.047-1.218,11.937-1.218c4.387,0,8.95,0.566,13.689,1.695
		c4.739,1.13,8.702,2.578,11.884,4.342c4.598,2.615,7.461,6.003,8.593,10.171c0.568,2.118,0.853,5.685,0.853,10.699v39.196
		c0,6.638,0.279,11.158,0.847,13.56c1.2,5.016,4.094,7.522,8.687,7.522c2.188,0,3.901-0.389,5.137-1.166
		C472.644,141.917,474.11,140.362,475.805,138.032z M440.742,96.295c-3.803,3.177-7.992,5.968-12.569,8.369
		c-5.14,2.754-8.693,4.836-10.664,6.25c-1.971,1.414-3.768,3.108-5.386,5.085c-3.311,4.095-4.963,8.861-4.963,14.301
		c0,4.66,1.284,8.51,3.853,11.545c2.567,3.038,5.826,4.556,9.77,4.556c3.451,0,6.705-1.076,9.77-3.231
		c3.059-2.153,5.365-5.033,6.914-8.634c2.184-4.731,3.276-11.583,3.276-20.552V96.295z"/>
	<path d="M528.662,0v1.377c-2.274,0.121-4.133,0.44-5.57,0.96c-1.442,0.521-2.7,1.359-3.779,2.52
		c-1.319,1.357-2.188,3.037-2.607,5.035c-0.42,1.999-0.629,5.436-0.629,10.311v33.93c0,5.514,0.209,9.501,0.629,11.959
		s1.271,4.727,2.547,6.805c1.92,3.157,4.288,5.444,7.106,6.863c2.817,1.42,6.364,2.127,10.64,2.127
		c4.156,0,8.123-0.629,11.899-1.889c3.777-1.257,6.922-3.006,9.441-5.245c1.558-1.397,2.706-2.917,3.447-4.555
		c0.74-1.641,1.229-3.717,1.469-6.235c0.158-1.64,0.239-5.517,0.239-11.629V18.822c0-4.114-0.229-7.153-0.69-9.111
		c-0.458-1.958-1.308-3.575-2.548-4.854c-1.118-1.16-2.39-1.999-3.807-2.52c-1.416-0.52-3.267-0.839-5.544-0.96V0h27.636v1.377
		c-2.28,0.121-4.128,0.44-5.547,0.96c-1.417,0.521-2.687,1.359-3.806,2.52c-1.238,1.279-2.088,2.905-2.548,4.884
		c-0.459,1.979-0.688,5.005-0.688,9.082v37.827c0,5.595-0.43,9.722-1.288,12.379c-0.861,2.659-2.567,5.085-5.128,7.283
		c-5.833,5.036-14.165,7.555-24.996,7.555c-11.312,0-19.643-2.378-25.001-7.135c-3.475-3.036-5.552-7.034-6.232-11.99
		c-0.242-1.758-0.36-4.935-0.36-9.531V18.822c0-4.114-0.218-7.153-0.659-9.111c-0.44-1.958-1.299-3.575-2.579-4.854
		c-1.077-1.16-2.328-1.999-3.744-2.52c-1.418-0.52-3.289-0.839-5.606-0.96V0H528.662z"/>
	<path d="M593.122,76.792l0.059,11.006v4.127c0,2.71,0.159,4.692,0.481,5.952c0.32,1.254,0.939,2.321,1.858,3.198
		c1.119,1.077,3.177,1.873,6.173,2.394v1.26h-26.495v-1.26c2.397-0.321,4.115-0.76,5.154-1.316c1.041-0.559,1.879-1.539,2.52-2.938
		c0.438-0.919,0.747-2.317,0.928-4.19c0.18-1.877,0.271-4.556,0.271-8.029V45.609c0-4.512-0.712-7.727-2.131-9.644
		c-1.417-1.916-3.806-2.875-7.161-2.875v-1.498l17.505-2.459c0.44,1.919,0.658,3.678,0.658,5.278v1.138
		c2.952-1.999,5.725-3.427,8.321-4.286c2.594-0.859,5.411-1.29,8.439-1.29c6.066,0,11.253,1.819,15.563,5.456
		c2.713,2.316,4.811,5.215,6.285,8.691c1.477,3.479,2.216,7.314,2.216,11.51c0,4.356-0.788,8.413-2.365,12.17
		c-1.575,3.756-3.821,6.853-6.734,9.29c-4.549,3.88-9.956,5.817-16.222,5.817c-2.993,0-5.577-0.439-7.751-1.319
		C598.519,80.71,595.995,79.11,593.122,76.792z M593.122,56.89c0,5.517,0.241,9.671,0.717,12.47
		c0.478,2.796,1.333,5.057,2.567,6.773c1.114,1.52,2.576,2.737,4.39,3.656c1.812,0.921,3.65,1.379,5.523,1.379
		c4.216,0,7.9-1.998,11.045-5.993c1.911-2.4,3.383-5.236,4.419-8.514c1.034-3.276,1.553-6.694,1.553-10.252
		c0-3.435-0.489-6.802-1.463-10.101c-0.979-3.295-2.34-6.123-4.092-8.482c-2.985-4.076-6.627-6.113-10.926-6.113
		c-2.11,0-4.102,0.519-5.971,1.558c-1.871,1.04-3.364,2.457-4.479,4.256c-1.234,1.918-2.09,4.307-2.567,7.164
		C593.363,47.549,593.122,51.613,593.122,56.89z"/>
	<rect x="79.107" y="134.547" fill="none" width="17.356" height="0"/>
</g>
</svg>
